<svg xmlns="http://www.w3.org/2000/svg" width="24" height="24" viewBox="0 0 24 24" fill="none" stroke="currentColor" stroke-width="2" stroke-linecap="round" stroke-linejoin="round" class="feather feather-brain">
    <path d="M9.5 2A2.5 2.5 0 0 1 12 4.5v15a2.5 2.5 0 0 1-5 0v-15A2.5 2.5 0 0 1 9.5 2z"></path>
    <path d="M14.5 2A2.5 2.5 0 0 0 12 4.5v15a2.5 2.5 0 0 0 5 0v-15A2.5 2.5 0 0 0 14.5 2z"></path>
    <path d="M4 9h2a2 2 0 0 0 2-2V5a2 2 0 0 0-2-2H4a2 2 0 0 0-2 2v2a2 2 0 0 0 2 2z"></path>
    <path d="M18 9h2a2 2 0 0 0 2-2V5a2 2 0 0 0-2-2h-2a2 2 0 0 0-2 2v2a2 2 0 0 0 2 2z"></path>
    <path d="M4 19h2a2 2 0 0 0 2-2v-2a2 2 0 0 0-2-2H4a2 2 0 0 0-2 2v2a2 2 0 0 0 2 2z"></path>
    <path d="M18 19h2a2 2 0 0 0 2-2v-2a2 2 0 0 0-2-2h-2a2 2 0 0 0-2 2v2a2 2 0 0 0 2 2z"></path>
</svg>
